<?xml version="1.0" standalone="no"?><!DOCTYPE svg PUBLIC "-//W3C//DTD SVG 1.1//EN" "http://www.w3.org/Graphics/SVG/1.1/DTD/svg11.dtd"><svg t="1739429149597" class="icon" viewBox="0 0 1024 1024" version="1.1" xmlns="http://www.w3.org/2000/svg" p-id="7455" xmlns:xlink="http://www.w3.org/1999/xlink" width="200" height="200"><path d="M512 960C759.423565 960 960 759.423565 960 512 960 264.576432 759.423565 64 512 64 264.576432 64 64 264.576432 64 512 64 759.423565 264.576432 960 512 960L512 960 512 960 512 960 512 960ZM512 878.545453C309.562535 878.545453 145.454545 714.437466 145.454545 512 145.454545 309.562535 309.562535 145.454545 512 145.454545 714.437466 145.454545 878.545453 309.562535 878.545453 512 878.545453 714.437466 714.437466 878.545453 512 878.545453L512 878.545453 512 878.545453 512 878.545453 512 878.545453Z" fill="#068BFA" p-id="7456"></path><path d="M560.496963 281.391135 769.476557 495.080617C785.800371 511.768911 785.800371 538.823709 769.476557 555.511148L560.496963 769.200627C544.177329 785.892346 517.71884 785.892346 501.39837 769.200627 485.075392 752.51319 485.075392 725.458394 501.39837 708.770099L639.031493 568.032497 238.378328 568.032497C215.286083 568.032497 196.582409 548.907288 196.582409 525.2946 196.582409 501.681912 215.286083 482.556704 238.378328 482.556704L639.031493 482.556704 501.39837 341.821665C493.248166 333.487775 489.150494 322.546874 489.150494 311.605118 489.150494 300.663361 493.22894 289.725025 501.39837 281.387715 517.71884 264.700276 544.177329 264.700276 560.496963 281.387715L560.496963 281.391135 560.496963 281.391135Z" fill="#068BFA" p-id="7457"></path></svg>